<svg xmlns="http://www.w3.org/2000/svg" viewBox="0 0 256 256" width="256" height="256">
	<style>
		tspan { white-space:pre }
		.shp0 { fill: #000000 } 
		.shp1 { fill: #000000;stroke: #ffffff;stroke-width: 30 } 
	</style>
	<path id="Background" class="shp0" d="M128 256C57.22 256 0 198.78 0 128C0 57.22 57.22 0 128 0C198.78 0 256 57.22 256 128C256 198.78 198.78 256 128 256Z" />
	<path id="Shape 1" class="shp1" d="M128.5 184C100.02 184 77 159.19 77 128.5C77 97.81 100.02 73 128.5 73C156.98 73 180 97.81 180 128.5C180 159.19 156.98 184 128.5 184Z" />
	<path id="Shape 1 copy" class="shp1" d="M128.5 184C100.02 184 77 159.19 77 128.5C77 97.81 100.02 73 128.5 73C156.98 73 180 97.81 180 128.5C180 159.19 156.98 184 128.5 184Z" />
	<path id="Shape 2" class="shp0" d="M40 103L128 103L128 207L40 207L40 103Z" />
	<path id="Shape 3" class="shp0" d="M64 151L157 151L157 220L64 220L64 151Z" />
</svg>