<svg xmlns="http://www.w3.org/2000/svg" viewBox="0 0 1190 323" width="1190" height="323">
	<defs>
		<clipPath clipPathUnits="userSpaceOnUse" id="cp1">
			<path d="M2 -140L1192 -140L1192 710L2 710L2 -140Z" />
		</clipPath>
	</defs>
	<style>
		tspan { white-space:pre }
		.shp0 { fill: #ffffff } 
		.txt1 { font-size: 34px;fill: #ffffff; font-family: "Arial" } 
	</style>
	<g id="Clip-Path: Page 1" clip-path="url(#cp1)">
		<g id="Page 1">
			<path id="Path 1" fill-rule="evenodd" class="shp0" d="M1144.09 189.15L1142.91 190.7C1142.56 191.16 1134.18 202.02 1117.45 212.97C1107.62 219.4 1096.93 224.53 1085.67 228.21C1072.68 232.45 1058.91 234.77 1044.7 235.1L1044.7 235.15L1037.43 235.15L1037.43 235.1C1023.21 234.77 1009.44 232.45 996.43 228.21C985.16 224.53 974.46 219.4 964.6 212.97C947.83 202.02 939.42 191.16 939.07 190.71L937.89 189.15L939.08 187.6C939.43 187.14 947.95 176.24 964.77 165.24C974.64 158.78 985.36 153.62 996.61 149.93C1009.58 145.66 1023.3 143.33 1037.43 142.99L1037.43 142.95L1044.7 142.95L1044.7 142.99C1058.82 143.33 1072.53 145.66 1085.49 149.93C1096.73 153.63 1107.43 158.78 1117.29 165.24C1134.07 176.24 1142.55 187.15 1142.9 187.61L1144.09 189.15ZM1067.31 169.37C1055.07 154.79 1032.77 153.35 1017.46 166.2L1029.27 180.27C1036.45 174.29 1046.9 174.96 1052.63 181.79C1058.35 188.62 1057.2 199.02 1050.06 205.06L1061.77 219.01C1077.08 206.16 1079.54 183.95 1067.31 169.37ZM250.07 70.62L257.95 69.87C258.42 72.5 259.37 74.42 260.81 75.65C262.25 76.88 264.19 77.5 266.63 77.5C269.22 77.5 271.17 76.95 272.48 75.85C273.79 74.76 274.45 73.48 274.45 72.01C274.45 71.07 274.17 70.27 273.62 69.61C273.07 68.95 272.1 68.37 270.73 67.88C269.79 67.55 267.64 66.97 264.3 66.14C259.99 65.06 256.97 63.75 255.23 62.19C252.79 59.99 251.57 57.31 251.57 54.15C251.57 52.12 252.14 50.22 253.29 48.45C254.44 46.68 256.09 45.33 258.25 44.4C260.41 43.48 263.02 43.01 266.08 43.01C271.07 43.01 274.83 44.11 277.35 46.31C279.87 48.51 281.2 51.45 281.33 55.12L273.29 55.45C272.94 53.39 272.21 51.9 271.08 51C269.95 50.1 268.26 49.65 266.01 49.65C263.68 49.65 261.86 50.13 260.55 51.09C259.7 51.71 259.28 52.54 259.28 53.58C259.28 54.53 259.67 55.34 260.47 56.02C261.48 56.87 263.94 57.76 267.84 58.69C271.75 59.62 274.64 60.58 276.51 61.57C278.38 62.56 279.84 63.92 280.9 65.64C281.96 67.36 282.49 69.48 282.49 72.01C282.49 74.31 281.85 76.45 280.58 78.45C279.31 80.46 277.52 81.95 275.2 82.92C272.88 83.89 269.99 84.38 266.53 84.38C261.49 84.38 257.62 83.21 254.91 80.86C252.21 78.52 250.6 75.11 250.07 70.62ZM314.42 63.32L306.88 64.65C306.62 63.17 306.05 62.05 305.16 61.3C304.26 60.55 303.1 60.17 301.67 60.17C299.77 60.17 298.26 60.83 297.13 62.15C296 63.47 295.44 65.67 295.44 68.76C295.44 72.19 296.01 74.62 297.16 76.04C298.31 77.45 299.85 78.16 301.78 78.16C303.23 78.16 304.42 77.74 305.34 76.91C306.26 76.08 306.91 74.64 307.29 72.61L314.84 73.85C314.05 77.32 312.56 79.95 310.34 81.72C308.13 83.49 305.16 84.38 301.44 84.38C297.21 84.38 293.84 83.04 291.33 80.37C288.82 77.7 287.56 74 287.56 69.28C287.56 64.5 288.82 60.78 291.34 58.11C293.86 55.45 297.27 54.12 301.56 54.12C305.08 54.12 307.87 54.88 309.95 56.39C312.02 57.91 313.51 60.22 314.42 63.32ZM327.74 43.76L327.74 58.58C330.21 55.61 333.16 54.12 336.58 54.12C338.34 54.12 339.92 54.45 341.34 55.1C342.75 55.75 343.82 56.59 344.54 57.6C345.25 58.61 345.74 59.74 346 60.97C346.27 62.2 346.4 64.11 346.4 66.7L346.4 83.63L338.77 83.63L338.77 68.42C338.77 65.4 338.62 63.48 338.33 62.67C338.04 61.85 337.53 61.2 336.8 60.73C336.06 60.25 335.14 60.01 334.03 60.01C332.76 60.01 331.63 60.31 330.63 60.93C329.63 61.54 328.9 62.47 328.44 63.71C327.97 64.95 327.74 66.78 327.74 69.2L327.74 83.63L320.12 83.63L320.12 43.76L327.74 43.76ZM359.7 83.63L350.58 54.7L357.99 54.7L363.39 73.66L368.37 54.7L375.74 54.7L380.55 73.66L386.07 54.7L393.61 54.7L384.33 83.63L376.99 83.63L372.01 65.02L367.12 83.63L359.7 83.63Z" />
			<path id="Path 2" fill-rule="evenodd" class="shp0" d="M414.31 74.51L421.93 75.76C420.95 78.57 419.4 80.7 417.29 82.17C415.17 83.64 412.53 84.38 409.35 84.38C404.32 84.38 400.6 82.73 398.18 79.44C396.28 76.81 395.32 73.48 395.32 69.47C395.32 64.67 396.57 60.91 399.08 58.19C401.59 55.48 404.76 54.12 408.59 54.12C412.89 54.12 416.29 55.54 418.78 58.38C421.26 61.22 422.46 65.58 422.35 71.44L403.2 71.44C403.25 73.72 403.87 75.49 405.04 76.76C406.22 78.02 407.69 78.66 409.44 78.66C410.64 78.66 411.64 78.33 412.46 77.68C413.27 77.02 413.89 75.97 414.31 74.51ZM414.72 66.8C414.67 64.58 414.1 62.89 413.01 61.74C411.93 60.59 410.61 60.01 409.05 60.01C407.39 60.01 406.02 60.62 404.93 61.83C403.85 63.05 403.32 64.71 403.33 66.8L414.72 66.8ZM428.46 54.7L436.09 54.7L436.09 83.63L428.46 83.63L428.46 54.7ZM428.46 43.76L436.09 43.76L436.09 50.8L428.46 50.8L428.46 43.76ZM440.95 83.63L440.95 77.66L451.77 65.18C453.54 63.14 454.86 61.69 455.71 60.83C454.82 60.89 453.64 60.93 452.19 60.94L441.95 61L441.95 54.7L465.91 54.7L465.91 60.09L454.87 72.85L450.99 77.08C453.1 76.97 454.41 76.92 454.92 76.92L466.74 76.92L466.74 83.63L440.95 83.63ZM488.62 74.51L496.25 75.76C495.27 78.57 493.72 80.7 491.6 82.17C489.49 83.64 486.84 84.38 483.66 84.38C478.63 84.38 474.91 82.73 472.5 79.44C470.59 76.81 469.64 73.48 469.64 69.47C469.64 64.67 470.89 60.91 473.39 58.19C475.9 55.48 479.07 54.12 482.9 54.12C487.21 54.12 490.6 55.54 493.09 58.38C495.58 61.22 496.77 65.58 496.66 71.44L477.51 71.44C477.57 73.72 478.18 75.49 479.36 76.76C480.53 78.02 482 78.66 483.76 78.66C484.95 78.66 485.96 78.33 486.77 77.68C487.59 77.02 488.2 75.97 488.62 74.51ZM489.03 66.8C488.98 64.58 488.41 62.89 487.33 61.74C486.24 60.59 484.92 60.01 483.37 60.01C481.7 60.01 480.33 60.62 479.25 61.83C478.16 63.05 477.63 64.71 477.65 66.8L489.03 66.8ZM510.15 83.63L502.53 83.63L502.53 54.7L509.65 54.7L509.65 58.81C510.88 56.87 511.98 55.6 512.95 55.01C513.93 54.42 515.04 54.12 516.28 54.12C518.03 54.12 519.72 54.6 521.34 55.57L518.98 62.25C517.67 61.42 516.46 61 515.34 61C514.25 61 513.33 61.29 512.58 61.88C511.83 62.47 511.23 63.53 510.8 65.07C510.37 66.61 510.15 69.83 510.15 74.73L510.15 83.63ZM524.45 54.7L532.08 54.7L532.08 83.63L524.45 83.63L524.45 54.7ZM524.45 43.76L532.08 43.76L532.08 50.8L524.45 50.8L524.45 43.76ZM537.36 75.51L545.07 74.35C545.39 75.81 546.05 76.93 547.04 77.68C548.02 78.44 549.4 78.82 551.18 78.82C553.14 78.82 554.61 78.46 555.6 77.73C556.26 77.22 556.59 76.53 556.59 75.67C556.59 75.09 556.41 74.61 556.05 74.22C555.67 73.86 554.82 73.52 553.49 73.21C547.33 71.84 543.43 70.59 541.78 69.47C539.5 67.91 538.36 65.75 538.36 62.98C538.36 60.48 539.34 58.38 541.32 56.67C543.3 54.97 546.36 54.12 550.52 54.12C554.47 54.12 557.41 54.76 559.33 56.03C561.26 57.3 562.58 59.18 563.31 61.66L556.1 62.99C555.79 61.87 555.21 61.01 554.35 60.41C553.49 59.81 552.26 59.51 550.67 59.51C548.66 59.51 547.22 59.79 546.35 60.36C545.77 60.76 545.48 61.28 545.48 61.92C545.48 62.47 545.74 62.93 546.25 63.32C546.94 63.83 549.32 64.55 553.38 65.48C557.45 66.41 560.3 67.55 561.91 68.91C563.5 70.28 564.3 72.18 564.3 74.63C564.3 77.29 563.2 79.59 560.99 81.5C558.78 83.42 555.51 84.38 551.19 84.38C547.26 84.38 544.15 83.58 541.86 81.99C539.57 80.4 538.07 78.24 537.36 75.51ZM596.2 63.32L588.65 64.65C588.4 63.17 587.83 62.05 586.93 61.3C586.04 60.55 584.88 60.17 583.45 60.17C581.55 60.17 580.04 60.83 578.91 62.15C577.78 63.47 577.21 65.67 577.21 68.76C577.21 72.19 577.79 74.62 578.94 76.04C580.08 77.45 581.63 78.16 583.56 78.16C585.01 78.16 586.19 77.74 587.11 76.91C588.04 76.08 588.69 74.64 589.07 72.61L596.61 73.85C595.83 77.32 594.33 79.95 592.12 81.72C589.9 83.49 586.94 84.38 583.22 84.38C578.99 84.38 575.62 83.04 573.11 80.37C570.59 77.7 569.34 74 569.34 69.28C569.34 64.5 570.6 60.78 573.12 58.11C575.64 55.45 579.04 54.12 583.34 54.12C586.85 54.12 589.65 54.88 591.72 56.39C593.8 57.91 595.29 60.22 596.2 63.32ZM609.52 43.76L609.52 58.58C611.99 55.61 614.93 54.12 618.36 54.12C620.12 54.12 621.7 54.45 623.12 55.1C624.53 55.75 625.59 56.59 626.31 57.6C627.03 58.61 627.51 59.74 627.78 60.97C628.04 62.2 628.17 64.11 628.17 66.7L628.17 83.63L620.55 83.63L620.55 68.42C620.55 65.4 620.4 63.48 620.11 62.67C619.82 61.85 619.31 61.2 618.57 60.73C617.84 60.25 616.92 60.01 615.81 60.01C614.54 60.01 613.4 60.31 612.41 60.93C611.41 61.54 610.68 62.47 610.22 63.71C609.75 64.95 609.52 66.78 609.52 69.2L609.52 83.63L601.89 83.63L601.89 43.76L609.52 43.76ZM652.75 74.51L660.38 75.76C659.4 78.57 657.85 80.7 655.73 82.17C653.62 83.64 650.97 84.38 647.79 84.38C642.76 84.38 639.04 82.73 636.63 79.44C634.72 76.81 633.77 73.48 633.77 69.47C633.77 64.67 635.02 60.91 637.53 58.19C640.03 55.48 643.2 54.12 647.04 54.12C651.34 54.12 654.73 55.54 657.22 58.38C659.71 61.22 660.9 65.58 660.79 71.44L641.64 71.44C641.7 73.72 642.31 75.49 643.49 76.76C644.67 78.02 646.13 78.66 647.89 78.66C649.08 78.66 650.09 78.33 650.9 77.68C651.72 77.02 652.33 75.97 652.75 74.51ZM653.17 66.8C653.11 64.58 652.54 62.89 651.46 61.74C650.37 60.59 649.05 60.01 647.5 60.01C645.84 60.01 644.46 60.62 643.38 61.83C642.29 63.05 641.76 64.71 641.78 66.8L653.17 66.8ZM674.28 83.63L666.66 83.63L666.66 54.7L673.79 54.7L673.79 58.81C675.01 56.87 676.11 55.6 677.08 55.01C678.06 54.42 679.17 54.12 680.41 54.12C682.16 54.12 683.85 54.6 685.48 55.57L683.11 62.25C681.81 61.42 680.59 61 679.47 61C678.38 61 677.47 61.29 676.71 61.88C675.96 62.47 675.36 63.53 674.93 65.07C674.5 66.61 674.28 69.83 674.28 74.73L674.28 83.63ZM704.23 43.76L720.15 43.76C723.31 43.76 725.66 43.89 727.21 44.15C728.75 44.42 730.14 44.97 731.37 45.81C732.59 46.65 733.61 47.76 734.42 49.16C735.24 50.55 735.64 52.11 735.64 53.85C735.64 55.72 735.15 57.44 734.15 59.01C733.15 60.58 731.8 61.76 730.1 62.54C732.52 63.24 734.38 64.44 735.68 66.14C736.98 67.84 737.64 69.83 737.64 72.12C737.64 73.93 737.21 75.68 736.37 77.39C735.53 79.1 734.38 80.46 732.91 81.48C731.45 82.5 729.66 83.13 727.52 83.36C726.18 83.51 722.94 83.6 717.8 83.63L704.23 83.63L704.23 43.76ZM712.27 50.47L712.27 59.67L717.53 59.67C720.65 59.67 722.59 59.63 723.35 59.54C724.73 59.38 725.81 58.9 726.59 58.11C727.38 57.33 727.77 56.29 727.77 55.01C727.77 53.78 727.43 52.78 726.75 52.01C726.08 51.24 725.07 50.77 723.73 50.61C722.94 50.52 720.65 50.47 716.88 50.47L712.27 50.47ZM712.27 66.39L712.27 76.92L719.74 76.92C722.65 76.92 724.5 76.84 725.28 76.68C726.48 76.46 727.46 75.94 728.21 75.11C728.97 74.27 729.35 73.16 729.35 71.76C729.35 70.58 729.06 69.58 728.47 68.75C727.89 67.93 727.05 67.33 725.95 66.95C724.85 66.58 722.46 66.39 718.79 66.39L712.27 66.39ZM744.29 43.76L751.92 43.76L751.92 83.63L744.29 83.63L744.29 43.76ZM759.77 54.7L767.4 54.7L767.4 83.63L759.77 83.63L759.77 54.7ZM759.77 43.76L767.4 43.76L767.4 50.8L759.77 50.8L759.77 43.76ZM801.52 83.63L793.9 83.63L793.9 68.93C793.9 65.82 793.74 63.81 793.41 62.89C793.08 61.98 792.56 61.27 791.82 60.76C791.09 60.26 790.2 60 789.17 60C787.85 60 786.66 60.37 785.62 61.09C784.57 61.81 783.85 62.77 783.46 63.97C783.07 65.16 782.87 67.37 782.87 70.58L782.87 83.63L775.24 83.63L775.24 54.7L782.38 54.7L782.38 58.94C784.89 55.73 788.05 54.12 791.86 54.12C793.53 54.12 795.07 54.42 796.46 55.03C797.85 55.64 798.9 56.41 799.62 57.35C800.33 58.3 800.82 59.37 801.11 60.56C801.39 61.76 801.52 63.47 801.52 65.69L801.52 83.63ZM835.8 83.63L828.67 83.63L828.67 79.39C827.5 81.04 826.12 82.28 824.52 83.12C822.93 83.96 821.32 84.38 819.7 84.38C816.4 84.38 813.58 83.04 811.23 80.36C808.88 77.68 807.7 73.94 807.7 69.14C807.7 64.23 808.85 60.51 811.14 57.95C813.43 55.4 816.33 54.12 819.83 54.12C823.05 54.12 825.83 55.46 828.18 58.15L828.18 43.76L835.8 43.76L835.8 83.63ZM815.58 68.64C815.58 71.72 816 73.95 816.85 75.33C818.07 77.33 819.78 78.33 821.97 78.33C823.71 78.33 825.2 77.58 826.43 76.08C827.65 74.58 828.26 72.35 828.26 69.37C828.26 66.05 827.66 63.66 826.48 62.2C825.29 60.74 823.77 60.01 821.92 60.01C820.12 60.01 818.61 60.73 817.4 62.17C816.18 63.61 815.58 65.77 815.58 68.64ZM860.13 74.51L867.76 75.76C866.78 78.57 865.23 80.7 863.11 82.17C861 83.64 858.35 84.38 855.17 84.38C850.14 84.38 846.42 82.73 844.01 79.44C842.1 76.81 841.15 73.48 841.15 69.47C841.15 64.67 842.4 60.91 844.9 58.19C847.41 55.48 850.59 54.12 854.42 54.12C858.72 54.12 862.11 55.54 864.6 58.38C867.09 61.22 868.28 65.58 868.17 71.44L849.03 71.44C849.08 73.72 849.69 75.49 850.87 76.76C852.05 78.02 853.51 78.66 855.27 78.66C856.46 78.66 857.47 78.33 858.28 77.68C859.1 77.02 859.71 75.97 860.13 74.51ZM860.54 66.8C860.49 64.58 859.92 62.89 858.84 61.74C857.75 60.59 856.43 60.01 854.88 60.01C853.22 60.01 851.84 60.62 850.76 61.83C849.67 63.05 849.14 64.71 849.16 66.8L860.54 66.8ZM900.56 83.63L892.94 83.63L892.94 68.93C892.94 65.82 892.78 63.81 892.45 62.89C892.12 61.98 891.59 61.27 890.86 60.76C890.13 60.26 889.24 60 888.21 60C886.89 60 885.7 60.37 884.65 61.09C883.61 61.81 882.88 62.77 882.5 63.97C882.11 65.16 881.91 67.37 881.91 70.58L881.91 83.63L874.28 83.63L874.28 54.7L881.41 54.7L881.41 58.94C883.93 55.73 887.08 54.12 890.89 54.12C892.57 54.12 894.11 54.42 895.5 55.03C896.89 55.64 897.94 56.41 898.66 57.35C899.36 58.3 899.86 59.37 900.14 60.56C900.42 61.76 900.56 63.47 900.56 65.69L900.56 83.63ZM908.07 83.63L908.07 43.76L915.69 43.76L915.69 58.15C918.06 55.46 920.86 54.12 924.1 54.12C927.63 54.12 930.55 55.4 932.87 57.95C935.18 60.51 936.33 64.17 936.33 68.95C936.33 73.89 935.16 77.7 932.81 80.37C930.45 83.04 927.6 84.38 924.24 84.38C922.58 84.38 920.96 83.95 919.35 83.1C917.74 82.24 916.36 81 915.2 79.39L915.2 83.63L908.07 83.63ZM915.61 68.64C915.61 71.63 916.08 73.84 917.03 75.28C918.36 77.31 920.13 78.33 922.33 78.33C924.03 78.33 925.47 77.61 926.67 76.16C927.86 74.72 928.46 72.45 928.46 69.34C928.46 66.04 927.86 63.66 926.66 62.2C925.45 60.74 923.91 60.01 922.03 60.01C920.19 60.01 918.66 60.72 917.44 62.14C916.22 63.57 915.61 65.73 915.61 68.64ZM961.49 83.63L961.49 79.31C960.44 80.85 959.06 82.08 957.35 83C955.64 83.92 953.83 84.38 951.93 84.38C949.99 84.38 948.26 83.95 946.72 83.09C945.18 82.24 944.06 81.04 943.38 79.49C942.69 77.94 942.34 75.8 942.34 73.06L942.34 54.7L949.97 54.7L949.97 68.01C949.97 72.09 950.11 74.59 950.39 75.5C950.67 76.42 951.19 77.15 951.93 77.69C952.68 78.22 953.62 78.49 954.77 78.49C956.08 78.49 957.26 78.13 958.29 77.41C959.33 76.7 960.04 75.8 960.42 74.74C960.8 73.68 960.99 71.07 960.99 66.92L960.99 54.7L968.62 54.7L968.62 83.63L961.49 83.63ZM1002.64 83.63L995.02 83.63L995.02 68.93C995.02 65.82 994.86 63.81 994.53 62.89C994.2 61.98 993.68 61.27 992.94 60.76C992.21 60.26 991.33 60 990.29 60C988.98 60 987.78 60.37 986.74 61.09C985.69 61.81 984.97 62.77 984.58 63.97C984.19 65.16 983.99 67.37 983.99 70.58L983.99 83.63L976.37 83.63L976.37 54.7L983.5 54.7L983.5 58.94C986.01 55.73 989.17 54.12 992.98 54.12C994.66 54.12 996.19 54.42 997.58 55.03C998.97 55.64 1000.02 56.41 1000.74 57.35C1001.45 58.3 1001.95 59.37 1002.23 60.56C1002.51 61.76 1002.64 63.47 1002.64 65.69L1002.64 83.63ZM1036.93 83.63L1029.8 83.63L1029.8 79.39C1028.63 81.04 1027.24 82.28 1025.65 83.12C1024.05 83.96 1022.44 84.38 1020.82 84.38C1017.53 84.38 1014.71 83.04 1012.35 80.36C1010 77.68 1008.82 73.94 1008.82 69.14C1008.82 64.23 1009.97 60.51 1012.26 57.95C1014.56 55.4 1017.45 54.12 1020.96 54.12C1024.17 54.12 1026.95 55.46 1029.3 58.15L1029.3 43.76L1036.93 43.76L1036.93 83.63ZM1016.7 68.64C1016.7 71.72 1017.13 73.95 1017.97 75.33C1019.19 77.33 1020.9 78.33 1023.1 78.33C1024.84 78.33 1026.32 77.58 1027.55 76.08C1028.77 74.58 1029.38 72.35 1029.38 69.37C1029.38 66.05 1028.79 63.66 1027.6 62.2C1026.41 60.74 1024.9 60.01 1023.04 60.01C1021.24 60.01 1019.73 60.73 1018.52 62.17C1017.3 63.61 1016.7 65.77 1016.7 68.64ZM46.78 114.05L50.1 113.76C50.25 115.1 50.62 116.19 51.19 117.04C51.76 117.89 52.65 118.58 53.85 119.11C55.06 119.64 56.41 119.9 57.91 119.9C59.25 119.9 60.43 119.7 61.45 119.3C62.47 118.9 63.23 118.35 63.73 117.66C64.23 116.96 64.48 116.2 64.48 115.38C64.48 114.55 64.25 113.82 63.78 113.2C63.3 112.58 62.51 112.06 61.4 111.64C60.69 111.36 59.12 110.93 56.68 110.34C54.24 109.75 52.53 109.2 51.55 108.68C50.28 108.01 49.34 107.18 48.71 106.19C48.09 105.21 47.78 104.1 47.78 102.88C47.78 101.53 48.16 100.27 48.92 99.1C49.68 97.93 50.79 97.04 52.25 96.44C53.71 95.83 55.33 95.53 57.12 95.53C59.09 95.53 60.82 95.85 62.33 96.48C63.83 97.12 64.98 98.05 65.79 99.29C66.6 100.52 67.03 101.92 67.09 103.49L63.74 103.73C63.55 102.07 62.94 100.81 61.9 99.95C60.86 99.1 59.31 98.68 57.28 98.68C55.15 98.68 53.6 99.07 52.63 99.85C51.66 100.63 51.18 101.56 51.18 102.66C51.18 103.62 51.52 104.41 52.21 105.02C52.88 105.64 54.65 106.27 57.5 106.91C60.36 107.56 62.31 108.12 63.37 108.61C64.91 109.32 66.05 110.22 66.78 111.32C67.51 112.41 67.88 113.67 67.88 115.1C67.88 116.51 67.48 117.84 66.67 119.09C65.86 120.34 64.7 121.31 63.19 122.01C61.68 122.7 59.97 123.05 58.08 123.05C55.68 123.05 53.67 122.7 52.05 122C50.43 121.3 49.16 120.24 48.24 118.83C47.32 117.43 46.83 115.83 46.78 114.05Z" />
			<path id="Path 3" fill-rule="evenodd" class="shp0" d="M89.53 116.34L92.9 116.79C92.37 118.76 91.38 120.29 89.95 121.38C88.51 122.46 86.67 123.01 84.44 123.01C81.62 123.01 79.39 122.14 77.74 120.41C76.09 118.68 75.27 116.25 75.27 113.12C75.27 109.88 76.1 107.37 77.77 105.59C79.44 103.8 81.6 102.91 84.26 102.91C86.83 102.91 88.93 103.78 90.56 105.53C92.19 107.29 93.01 109.76 93.01 112.94C93.01 113.13 93 113.42 92.99 113.81L78.63 113.81C78.75 115.91 79.35 117.52 80.42 118.64C81.5 119.76 82.84 120.31 84.45 120.31C85.65 120.31 86.67 120 87.52 119.36C88.37 118.73 89.04 117.72 89.53 116.34ZM78.79 111.11L89.57 111.11C89.42 109.5 89.01 108.28 88.33 107.48C87.29 106.23 85.94 105.6 84.28 105.6C82.78 105.6 81.52 106.1 80.49 107.1C79.47 108.1 78.9 109.44 78.79 111.11ZM100.97 95.98L104.24 95.98L104.24 122.6L100.97 122.6L100.97 95.98ZM116.34 122.59L113.31 122.59L113.31 95.98L116.58 95.98L116.58 105.51C117.96 103.77 119.72 102.91 121.86 102.91C123.04 102.91 124.16 103.14 125.22 103.62C126.28 104.1 127.15 104.77 127.83 105.63C128.51 106.49 129.05 107.54 129.43 108.75C129.82 109.98 130.01 111.28 130.01 112.67C130.01 115.96 129.2 118.51 127.56 120.31C125.93 122.11 123.97 123.01 121.68 123.01C119.41 123.01 117.63 122.06 116.34 120.15L116.34 122.59ZM116.25 112.81C116.25 115.11 116.57 116.78 117.2 117.8C118.23 119.48 119.62 120.31 121.38 120.31C122.81 120.31 124.05 119.7 125.09 118.46C126.13 117.23 126.66 115.39 126.66 112.94C126.66 110.43 126.15 108.58 125.15 107.39C124.15 106.19 122.94 105.6 121.53 105.6C120.09 105.6 118.86 106.22 117.82 107.45C116.77 108.69 116.25 110.48 116.25 112.81ZM136.77 116.83L140 116.34C140.18 117.62 140.69 118.6 141.52 119.29C142.34 119.97 143.5 120.31 144.99 120.31C146.48 120.31 147.6 120.01 148.32 119.4C149.05 118.8 149.41 118.08 149.41 117.27C149.41 116.53 149.09 115.95 148.44 115.53C147.99 115.24 146.87 114.88 145.1 114.43C142.7 113.83 141.05 113.3 140.12 112.86C139.2 112.42 138.5 111.81 138.02 111.03C137.55 110.25 137.31 109.39 137.31 108.45C137.31 107.59 137.5 106.8 137.9 106.07C138.29 105.34 138.82 104.73 139.5 104.25C140.01 103.87 140.7 103.56 141.57 103.3C142.45 103.04 143.39 102.91 144.39 102.91C145.9 102.91 147.23 103.12 148.37 103.56C149.51 103.99 150.35 104.58 150.9 105.32C151.44 106.06 151.82 107.05 152.02 108.29L148.83 108.75C148.68 107.76 148.26 106.99 147.57 106.43C146.88 105.88 145.89 105.6 144.63 105.6C143.13 105.6 142.06 105.85 141.42 106.34C140.78 106.83 140.46 107.41 140.46 108.07C140.46 108.49 140.59 108.87 140.86 109.21C141.12 109.56 141.54 109.85 142.11 110.07C142.43 110.2 143.39 110.47 144.99 110.9C147.29 111.52 148.91 112.02 149.83 112.42C150.74 112.81 151.46 113.38 151.98 114.13C152.51 114.88 152.77 115.81 152.77 116.92C152.77 118.01 152.45 119.03 151.82 119.99C151.18 120.95 150.26 121.7 149.07 122.22C147.87 122.75 146.52 123.01 145 123.01C142.5 123.01 140.59 122.49 139.28 121.45C137.97 120.41 137.13 118.87 136.77 116.83ZM167.8 119.68L168.26 122.56C167.34 122.76 166.51 122.86 165.79 122.86C164.6 122.86 163.68 122.67 163.03 122.29C162.38 121.92 161.92 121.42 161.65 120.81C161.38 120.2 161.25 118.92 161.25 116.95L161.25 105.86L158.85 105.86L158.85 103.33L161.25 103.33L161.25 98.56L164.52 96.61L164.52 103.33L167.8 103.33L167.8 105.86L164.52 105.86L164.52 117.12C164.52 118.06 164.58 118.65 164.7 118.92C164.81 119.18 165 119.4 165.26 119.55C165.52 119.71 165.89 119.79 166.37 119.79C166.73 119.79 167.21 119.75 167.8 119.68ZM175.04 122.59L175.04 95.98L178.31 95.98L178.31 105.56C179.82 103.79 181.74 102.91 184.04 102.91C185.46 102.91 186.69 103.19 187.74 103.75C188.79 104.31 189.54 105.09 189.99 106.08C190.44 107.07 190.66 108.51 190.66 110.39L190.66 122.59L187.39 122.59L187.39 110.4C187.39 108.77 187.04 107.58 186.34 106.84C185.63 106.09 184.64 105.72 183.36 105.72C182.4 105.72 181.5 105.97 180.66 106.47C179.81 106.98 179.21 107.66 178.85 108.51C178.49 109.37 178.31 110.55 178.31 112.07L178.31 122.59L175.04 122.59ZM199.78 103.32L203.05 103.32L203.05 122.6L199.78 122.6L199.78 103.32ZM199.78 95.98L203.05 95.98L203.05 99.71L199.78 99.71L199.78 95.98ZM211.96 95.98L215.23 95.98L215.23 122.6L211.96 122.6L211.96 95.98ZM225.13 122.59L225.13 105.85L222.22 105.85L222.22 103.32L225.13 103.32L225.13 101.27C225.13 99.97 225.24 99.01 225.47 98.38C225.78 97.53 226.33 96.84 227.12 96.32C227.91 95.79 229.02 95.53 230.44 95.53C231.36 95.53 232.38 95.64 233.49 95.85L233 98.69C232.32 98.57 231.68 98.51 231.08 98.51C230.09 98.51 229.39 98.72 228.97 99.15C228.57 99.57 228.36 100.37 228.36 101.53L228.36 103.32L232.13 103.32L232.13 105.85L228.4 105.85L228.4 122.59L225.13 122.59ZM251.89 116.34L255.26 116.79C254.73 118.76 253.74 120.29 252.3 121.38C250.86 122.46 249.03 123.01 246.8 123.01C243.98 123.01 241.75 122.14 240.1 120.41C238.45 118.68 237.62 116.25 237.62 113.12C237.62 109.88 238.46 107.37 240.13 105.59C241.79 103.8 243.96 102.91 246.61 102.91C249.19 102.91 251.29 103.78 252.92 105.53C254.55 107.29 255.36 109.76 255.36 112.94C255.36 113.13 255.36 113.42 255.35 113.81L240.98 113.81C241.11 115.91 241.7 117.52 242.78 118.64C243.86 119.76 245.2 120.31 246.81 120.31C248 120.31 249.03 120 249.87 119.36C250.72 118.73 251.39 117.72 251.89 116.34ZM241.15 111.11L251.93 111.11C251.78 109.5 251.37 108.28 250.69 107.48C249.65 106.23 248.3 105.6 246.64 105.6C245.14 105.6 243.87 106.1 242.85 107.1C241.82 108.1 241.26 109.44 241.15 111.11ZM280.76 122.59L277.73 122.59L277.73 95.98L281.01 95.98L281.01 105.51C282.38 103.77 284.14 102.91 286.28 102.91C287.46 102.91 288.58 103.14 289.64 103.62C290.7 104.1 291.57 104.77 292.25 105.63C292.93 106.49 293.47 107.54 293.85 108.75C294.24 109.98 294.43 111.28 294.43 112.67C294.43 115.96 293.62 118.51 291.99 120.31C290.35 122.11 288.39 123.01 286.11 123.01C283.83 123.01 282.05 122.06 280.76 120.15L280.76 122.59ZM280.67 112.81C280.67 115.11 280.99 116.78 281.62 117.8C282.65 119.48 284.04 120.31 285.8 120.31C287.23 120.31 288.47 119.7 289.51 118.46C290.56 117.23 291.08 115.39 291.08 112.94C291.08 110.43 290.58 108.58 289.58 107.39C288.58 106.19 287.37 105.6 285.95 105.6C284.52 105.6 283.28 106.22 282.24 107.45C281.2 108.69 280.67 110.48 280.67 112.81ZM302.39 95.98L305.67 95.98L305.67 122.6L302.39 122.6L302.39 95.98ZM314.82 103.32L318.09 103.32L318.09 122.6L314.82 122.6L314.82 103.32ZM314.82 95.98L318.09 95.98L318.09 99.71L314.82 99.71L314.82 95.98ZM327.07 122.59L327.07 103.32L330.02 103.32L330.02 106.06C331.43 103.96 333.47 102.91 336.13 102.91C337.29 102.91 338.36 103.11 339.33 103.53C340.3 103.95 341.02 104.5 341.51 105.17C341.99 105.85 342.33 106.65 342.52 107.58C342.64 108.19 342.7 109.24 342.7 110.75L342.7 122.59L339.43 122.59L339.43 110.87C339.43 109.54 339.3 108.55 339.05 107.89C338.79 107.23 338.35 106.71 337.7 106.31C337.06 105.92 336.3 105.72 335.44 105.72C334.05 105.72 332.86 106.17 331.85 107.05C330.85 107.93 330.35 109.61 330.35 112.07L330.35 122.59L327.07 122.59ZM364.25 122.59L364.25 120.13C363.03 122.05 361.23 123.01 358.86 123.01C357.33 123.01 355.92 122.59 354.63 121.74C353.34 120.9 352.34 119.72 351.63 118.2C350.93 116.68 350.57 114.94 350.57 112.98C350.57 111.05 350.89 109.31 351.53 107.75C352.17 106.19 353.13 104.99 354.41 104.15C355.69 103.32 357.12 102.91 358.7 102.91C359.86 102.91 360.89 103.15 361.8 103.64C362.7 104.13 363.44 104.76 364 105.55L364 95.98L367.28 95.98L367.28 122.59L364.25 122.59ZM353.93 112.97C353.93 115.43 354.45 117.27 355.5 118.49C356.54 119.71 357.77 120.31 359.19 120.31C360.62 120.31 361.83 119.73 362.83 118.57C363.83 117.4 364.33 115.63 364.33 113.24C364.33 110.61 363.82 108.68 362.81 107.45C361.79 106.22 360.53 105.6 359.04 105.6C357.59 105.6 356.37 106.19 355.39 107.37C354.42 108.55 353.93 110.42 353.93 112.97ZM389.66 116.34L393.03 116.79C392.5 118.76 391.52 120.29 390.08 121.38C388.64 122.46 386.8 123.01 384.57 123.01C381.76 123.01 379.52 122.14 377.88 120.41C376.23 118.68 375.4 116.25 375.4 113.12C375.4 109.88 376.23 107.37 377.9 105.59C379.57 103.8 381.73 102.91 384.39 102.91C386.96 102.91 389.06 103.78 390.7 105.53C392.33 107.29 393.14 109.76 393.14 112.94C393.14 113.13 393.13 113.42 393.12 113.81L378.76 113.81C378.88 115.91 379.48 117.52 380.55 118.64C381.63 119.76 382.97 120.31 384.58 120.31C385.78 120.31 386.8 120 387.65 119.36C388.5 118.73 389.17 117.72 389.66 116.34ZM378.92 111.11L389.7 111.11C389.56 109.5 389.14 108.28 388.47 107.48C387.42 106.23 386.07 105.6 384.41 105.6C382.91 105.6 381.65 106.1 380.62 107.1C379.6 108.1 379.03 109.44 378.92 111.11ZM401.14 122.59L401.14 103.32L404.08 103.32L404.08 106.24C404.83 104.88 405.52 103.99 406.15 103.55C406.79 103.12 407.48 102.91 408.24 102.91C409.34 102.91 410.45 103.25 411.58 103.94L410.43 106.95C409.64 106.49 408.85 106.26 408.06 106.26C407.36 106.26 406.72 106.48 406.16 106.91C405.6 107.34 405.2 107.93 404.96 108.69C404.6 109.85 404.41 111.12 404.41 112.5L404.41 122.59L401.14 122.59ZM444.56 122.59L444.56 119.74C443.07 121.92 441.03 123.01 438.46 123.01C437.32 123.01 436.26 122.79 435.28 122.35C434.29 121.92 433.56 121.37 433.09 120.72C432.61 120.05 432.27 119.25 432.08 118.29C431.95 117.65 431.88 116.64 431.88 115.25L431.88 103.32L435.16 103.32L435.16 113.99C435.16 115.69 435.22 116.84 435.36 117.43C435.56 118.29 435.99 118.97 436.66 119.46C437.32 119.95 438.14 120.19 439.12 120.19C440.1 120.19 441.02 119.94 441.88 119.44C442.73 118.93 443.34 118.25 443.7 117.39C444.05 116.53 444.23 115.27 444.23 113.63L444.23 103.32L447.51 103.32L447.51 122.59L444.56 122.59ZM456.67 122.59L456.67 103.32L459.61 103.32L459.61 106.06C461.02 103.96 463.06 102.91 465.72 102.91C466.88 102.91 467.95 103.11 468.92 103.53C469.89 103.95 470.62 104.5 471.1 105.17C471.58 105.85 471.92 106.65 472.11 107.58C472.23 108.19 472.29 109.24 472.29 110.75L472.29 122.59L469.02 122.59L469.02 110.87C469.02 109.54 468.89 108.55 468.64 107.89C468.39 107.23 467.94 106.71 467.29 106.31C466.65 105.92 465.9 105.72 465.03 105.72C463.65 105.72 462.45 106.17 461.45 107.05C460.44 107.93 459.94 109.61 459.94 112.07L459.94 122.59L456.67 122.59ZM493.85 122.59L493.85 120.13C492.62 122.05 490.83 123.01 488.46 123.01C486.92 123.01 485.51 122.59 484.22 121.74C482.93 120.9 481.93 119.72 481.23 118.2C480.52 116.68 480.17 114.94 480.17 112.98C480.17 111.05 480.49 109.31 481.13 107.75C481.77 106.19 482.72 104.99 484 104.15C485.28 103.32 486.71 102.91 488.29 102.91C489.45 102.91 490.48 103.15 491.39 103.64C492.29 104.13 493.03 104.76 493.6 105.55L493.6 95.98L496.87 95.98L496.87 122.59L493.85 122.59ZM483.52 112.97C483.52 115.43 484.05 117.27 485.09 118.49C486.13 119.71 487.36 120.31 488.78 120.31C490.21 120.31 491.43 119.73 492.43 118.57C493.43 117.4 493.93 115.63 493.93 113.24C493.93 110.61 493.42 108.68 492.4 107.45C491.38 106.22 490.13 105.6 488.64 105.6C487.18 105.6 485.97 106.19 484.99 107.37C484.01 108.55 483.52 110.42 483.52 112.97ZM519.15 116.83L522.39 116.34C522.57 117.62 523.07 118.6 523.9 119.29C524.73 119.97 525.89 120.31 527.37 120.31C528.87 120.31 529.98 120.01 530.71 119.4C531.43 118.8 531.8 118.08 531.8 117.27C531.8 116.53 531.47 115.95 530.82 115.53C530.37 115.24 529.26 114.88 527.48 114.43C525.09 113.83 523.43 113.3 522.51 112.86C521.59 112.42 520.88 111.81 520.41 111.03C519.93 110.25 519.69 109.39 519.69 108.45C519.69 107.59 519.89 106.8 520.28 106.07C520.67 105.34 521.21 104.73 521.89 104.25C522.39 103.87 523.08 103.56 523.96 103.3C524.83 103.04 525.78 102.91 526.78 102.91C528.29 102.91 529.61 103.12 530.76 103.56C531.9 103.99 532.74 104.58 533.28 105.32C533.83 106.06 534.2 107.05 534.41 108.29L531.22 108.75C531.07 107.76 530.65 106.99 529.96 106.43C529.26 105.88 528.28 105.6 527.01 105.6C525.51 105.6 524.44 105.85 523.8 106.34C523.16 106.83 522.84 107.41 522.84 108.07C522.84 108.49 522.98 108.87 523.24 109.21C523.51 109.56 523.92 109.85 524.49 110.07C524.82 110.2 525.78 110.47 527.37 110.9C529.68 111.52 531.29 112.02 532.21 112.42C533.13 112.81 533.85 113.38 534.37 114.13C534.89 114.88 535.15 115.81 535.15 116.92C535.15 118.01 534.84 119.03 534.2 119.99C533.57 120.95 532.65 121.7 531.45 122.22C530.25 122.75 528.9 123.01 527.39 123.01C524.89 123.01 522.98 122.49 521.67 121.45C520.35 120.41 519.52 118.87 519.15 116.83ZM556.24 116.34L559.61 116.79C559.08 118.76 558.09 120.29 556.66 121.38C555.22 122.46 553.38 123.01 551.15 123.01C548.33 123.01 546.1 122.14 544.45 120.41C542.8 118.68 541.98 116.25 541.98 113.12C541.98 109.88 542.81 107.37 544.48 105.59C546.15 103.8 548.31 102.91 550.97 102.91C553.54 102.91 555.64 103.78 557.27 105.53C558.9 107.29 559.72 109.76 559.72 112.94C559.72 113.13 559.71 113.42 559.7 113.81L545.34 113.81C545.46 115.91 546.06 117.52 547.13 118.64C548.21 119.76 549.55 120.31 551.16 120.31C552.36 120.31 553.38 120 554.23 119.36C555.08 118.73 555.75 117.72 556.24 116.34ZM545.5 111.11L556.28 111.11C556.13 109.5 555.72 108.28 555.04 107.48C554 106.23 552.65 105.6 550.99 105.6C549.49 105.6 548.22 106.1 547.2 107.1C546.18 108.1 545.61 109.44 545.5 111.11ZM567.76 122.59L567.76 95.98L571.03 95.98L571.03 105.56C572.55 103.79 574.46 102.91 576.77 102.91C578.18 102.91 579.42 103.19 580.46 103.75C581.51 104.31 582.26 105.09 582.71 106.08C583.16 107.07 583.38 108.51 583.38 110.39L583.38 122.59L580.11 122.59L580.11 110.4C580.11 108.77 579.76 107.58 579.06 106.84C578.36 106.09 577.37 105.72 576.08 105.72C575.13 105.72 574.22 105.97 573.38 106.47C572.53 106.98 571.93 107.66 571.57 108.51C571.21 109.37 571.03 110.55 571.03 112.07L571.03 122.59L567.76 122.59ZM595.45 122.59L592.42 122.59L592.42 95.98L595.7 95.98L595.7 105.51C597.07 103.77 598.83 102.91 600.97 102.91C602.15 102.91 603.27 103.14 604.33 103.62C605.39 104.1 606.26 104.77 606.94 105.63C607.62 106.49 608.16 107.54 608.54 108.75C608.93 109.98 609.13 111.28 609.13 112.67C609.13 115.96 608.31 118.51 606.68 120.31C605.04 122.11 603.08 123.01 600.8 123.01C598.52 123.01 596.74 122.06 595.45 120.15L595.45 122.59ZM595.36 112.81C595.36 115.11 595.68 116.78 596.31 117.8C597.34 119.48 598.73 120.31 600.49 120.31C601.92 120.31 603.16 119.7 604.2 118.46C605.25 117.23 605.77 115.39 605.77 112.94C605.77 110.43 605.27 108.58 604.27 107.39C603.27 106.19 602.06 105.6 600.64 105.6C599.21 105.6 597.97 106.22 596.93 107.45C595.88 108.69 595.36 110.48 595.36 112.81ZM630.35 116.34L633.72 116.79C633.19 118.76 632.2 120.29 630.76 121.38C629.33 122.46 627.49 123.01 625.26 123.01C622.44 123.01 620.21 122.14 618.56 120.41C616.91 118.68 616.09 116.25 616.09 113.12C616.09 109.88 616.92 107.37 618.59 105.59C620.25 103.8 622.42 102.91 625.07 102.91C627.65 102.91 629.75 103.78 631.38 105.53C633.01 107.29 633.83 109.76 633.83 112.94C633.83 113.13 633.82 113.42 633.81 113.81L619.44 113.81C619.57 115.91 620.16 117.52 621.24 118.64C622.32 119.76 623.66 120.31 625.27 120.31C626.47 120.31 627.49 120 628.34 119.36C629.18 118.73 629.86 117.72 630.35 116.34ZM619.61 111.11L630.39 111.11C630.24 109.5 629.83 108.28 629.15 107.48C628.11 106.23 626.76 105.6 625.1 105.6C623.6 105.6 622.33 106.1 621.31 107.1C620.29 108.1 619.72 109.44 619.61 111.11ZM641.87 122.59L641.87 95.98L645.14 95.98L645.14 105.56C646.66 103.79 648.57 102.91 650.88 102.91C652.3 102.91 653.53 103.19 654.57 103.75C655.62 104.31 656.37 105.09 656.82 106.08C657.27 107.07 657.49 108.51 657.49 110.39L657.49 122.59L654.22 122.59L654.22 110.4C654.22 108.77 653.87 107.58 653.17 106.84C652.47 106.09 651.48 105.72 650.19 105.72C649.23 105.72 648.33 105.97 647.49 106.47C646.64 106.98 646.04 107.66 645.68 108.51C645.32 109.37 645.14 110.55 645.14 112.07L645.14 122.59L641.87 122.59ZM669.89 122.6L666.61 122.6L666.61 103.32L669.89 103.32L669.89 122.6ZM669.89 99.71L666.61 99.71L666.61 95.98L669.89 95.98L669.89 99.71ZM678.87 122.59L678.87 103.32L681.81 103.32L681.81 106.06C683.22 103.96 685.26 102.91 687.93 102.91C689.08 102.91 690.15 103.11 691.12 103.53C692.09 103.95 692.82 104.5 693.3 105.17C693.78 105.85 694.12 106.65 694.32 107.58C694.44 108.19 694.5 109.24 694.5 110.75L694.5 122.59L691.22 122.59L691.22 110.87C691.22 109.54 691.09 108.55 690.84 107.89C690.59 107.23 690.14 106.71 689.5 106.31C688.85 105.92 688.1 105.72 687.23 105.72C685.85 105.72 684.65 106.17 683.65 107.05C682.65 107.93 682.15 109.61 682.15 112.07L682.15 122.59L678.87 122.59ZM716.05 122.59L716.05 120.13C714.83 122.05 713.03 123.01 710.66 123.01C709.12 123.01 707.71 122.59 706.42 121.74C705.14 120.9 704.14 119.72 703.43 118.2C702.72 116.68 702.37 114.94 702.37 112.98C702.37 111.05 702.69 109.31 703.33 107.75C703.97 106.19 704.93 104.99 706.21 104.15C707.48 103.32 708.92 102.91 710.5 102.91C711.65 102.91 712.68 103.15 713.59 103.64C714.5 104.13 715.23 104.76 715.8 105.55L715.8 95.98L719.07 95.98L719.07 122.59L716.05 122.59ZM705.73 112.97C705.73 115.43 706.25 117.27 707.29 118.49C708.33 119.71 709.56 120.31 710.98 120.31C712.41 120.31 713.63 119.73 714.63 118.57C715.63 117.4 716.13 115.63 716.13 113.24C716.13 110.61 715.62 108.68 714.6 107.45C713.58 106.22 712.33 105.6 710.84 105.6C709.38 105.6 708.17 106.19 707.19 107.37C706.21 108.55 705.73 110.42 705.73 112.97ZM741.46 116.34L744.83 116.79C744.3 118.76 743.31 120.29 741.87 121.38C740.44 122.46 738.6 123.01 736.36 123.01C733.55 123.01 731.32 122.14 729.67 120.41C728.02 118.68 727.19 116.25 727.19 113.12C727.19 109.88 728.03 107.37 729.7 105.59C731.36 103.8 733.53 102.91 736.18 102.91C738.76 102.91 740.86 103.78 742.49 105.53C744.12 107.29 744.93 109.76 744.93 112.94C744.93 113.13 744.93 113.42 744.92 113.81L730.55 113.81C730.67 115.91 731.27 117.52 732.35 118.64C733.43 119.76 734.77 120.31 736.38 120.31C737.58 120.31 738.6 120 739.45 119.36C740.29 118.73 740.96 117.72 741.46 116.34ZM730.72 111.11L741.49 111.11C741.35 109.5 740.94 108.28 740.26 107.48C739.22 106.23 737.87 105.6 736.21 105.6C734.7 105.6 733.44 106.1 732.42 107.1C731.4 108.1 730.83 109.44 730.72 111.11ZM752.94 122.59L752.94 103.32L755.88 103.32L755.88 106.24C756.63 104.88 757.32 103.99 757.95 103.55C758.58 103.12 759.28 102.91 760.04 102.91C761.13 102.91 762.25 103.25 763.38 103.94L762.23 106.95C761.44 106.49 760.64 106.26 759.86 106.26C759.15 106.26 758.52 106.48 757.96 106.91C757.4 107.34 757 107.93 756.75 108.69C756.39 109.85 756.21 111.12 756.21 112.5L756.21 122.59L752.94 122.59ZM776.52 119.68L776.98 122.56C776.06 122.76 775.23 122.86 774.51 122.86C773.32 122.86 772.41 122.67 771.75 122.29C771.1 121.92 770.64 121.42 770.37 120.81C770.11 120.2 769.97 118.92 769.97 116.95L769.97 105.86L767.57 105.86L767.57 103.33L769.97 103.33L769.97 98.56L773.25 96.61L773.25 103.33L776.52 103.33L776.52 105.86L773.25 105.86L773.25 117.12C773.25 118.06 773.31 118.65 773.42 118.92C773.54 119.18 773.72 119.4 773.98 119.55C774.24 119.71 774.61 119.79 775.09 119.79C775.45 119.79 775.93 119.75 776.52 119.68ZM796.95 116.34L800.31 116.79C799.78 118.76 798.8 120.29 797.36 121.38C795.92 122.46 794.08 123.01 791.85 123.01C789.04 123.01 786.81 122.14 785.16 120.41C783.51 118.68 782.68 116.25 782.68 113.12C782.68 109.88 783.51 107.37 785.18 105.59C786.85 103.8 789.01 102.91 791.67 102.91C794.24 102.91 796.35 103.78 797.98 105.53C799.61 107.29 800.42 109.76 800.42 112.94C800.42 113.13 800.41 113.42 800.41 113.81L786.04 113.81C786.16 115.91 786.76 117.52 787.83 118.64C788.91 119.76 790.26 120.31 791.86 120.31C793.06 120.31 794.08 120 794.93 119.36C795.78 118.73 796.45 117.72 796.95 116.34ZM786.2 111.11L796.98 111.11C796.84 109.5 796.42 108.28 795.75 107.48C794.7 106.23 793.35 105.6 791.69 105.6C790.19 105.6 788.93 106.1 787.9 107.1C786.88 108.1 786.31 109.44 786.2 111.11ZM808.42 122.59L808.42 103.32L811.36 103.32L811.36 106.24C812.11 104.88 812.8 103.99 813.43 103.55C814.07 103.12 814.76 102.91 815.52 102.91C816.62 102.91 817.73 103.25 818.87 103.94L817.71 106.95C816.92 106.49 816.13 106.26 815.34 106.26C814.64 106.26 814 106.48 813.44 106.91C812.88 107.34 812.48 107.93 812.24 108.69C811.88 109.85 811.7 111.12 811.7 112.5L811.7 122.59L808.42 122.59ZM839.53 122.59L839.53 95.98L844.8 95.98L851.13 114.81C851.71 116.56 852.14 117.87 852.41 118.74C852.71 117.77 853.18 116.35 853.82 114.48L860.2 95.98L864.94 95.98L864.94 122.59L861.55 122.59L861.55 100.33L853.8 122.59L850.63 122.59L842.93 99.92L842.93 122.59L839.53 122.59ZM887.41 116.34L890.78 116.79C890.25 118.76 889.27 120.29 887.83 121.38C886.39 122.46 884.55 123.01 882.32 123.01C879.51 123.01 877.28 122.14 875.63 120.41C873.97 118.68 873.15 116.25 873.15 113.12C873.15 109.88 873.99 107.37 875.65 105.59C877.32 103.8 879.48 102.91 882.14 102.91C884.71 102.91 886.81 103.78 888.44 105.53C890.08 107.29 890.89 109.76 890.89 112.94C890.89 113.13 890.88 113.42 890.87 113.81L876.51 113.81C876.63 115.91 877.22 117.52 878.3 118.64C879.38 119.76 880.72 120.31 882.33 120.31C883.53 120.31 884.55 120 885.4 119.36C886.25 118.73 886.92 117.72 887.41 116.34ZM876.67 111.11L887.45 111.11C887.3 109.5 886.89 108.28 886.22 107.48C885.17 106.23 883.82 105.6 882.16 105.6C880.66 105.6 879.4 106.1 878.37 107.1C877.35 108.1 876.78 109.44 876.67 111.11ZM898.93 122.59L898.93 103.32L901.88 103.32L901.88 106.06C903.29 103.96 905.32 102.91 907.99 102.91C909.15 102.91 910.21 103.11 911.18 103.53C912.15 103.95 912.88 104.5 913.37 105.17C913.85 105.85 914.18 106.65 914.38 107.58C914.5 108.19 914.56 109.24 914.56 110.75L914.56 122.59L911.28 122.59L911.28 110.87C911.28 109.54 911.16 108.55 910.9 107.89C910.65 107.23 910.21 106.71 909.56 106.31C908.92 105.92 908.16 105.72 907.29 105.72C905.91 105.72 904.72 106.17 903.72 107.05C902.71 107.93 902.21 109.61 902.21 112.07L902.21 122.59L898.93 122.59ZM922.35 116.83L925.58 116.34C925.76 117.62 926.27 118.6 927.1 119.29C927.93 119.97 929.08 120.31 930.57 120.31C932.06 120.31 933.18 120.01 933.9 119.4C934.63 118.8 934.99 118.08 934.99 117.27C934.99 116.53 934.66 115.95 934.02 115.53C933.57 115.24 932.45 114.88 930.68 114.43C928.29 113.83 926.63 113.3 925.7 112.86C924.78 112.42 924.08 111.81 923.6 111.03C923.13 110.25 922.89 109.39 922.89 108.45C922.89 107.59 923.08 106.8 923.47 106.07C923.87 105.34 924.4 104.73 925.08 104.25C925.59 103.87 926.28 103.56 927.15 103.3C928.03 103.04 928.97 102.91 929.97 102.91C931.48 102.91 932.81 103.12 933.95 103.56C935.09 103.99 935.94 104.58 936.48 105.32C937.02 106.06 937.4 107.05 937.6 108.29L934.41 108.75C934.27 107.76 933.85 106.99 933.15 106.43C932.46 105.88 931.47 105.6 930.21 105.6C928.71 105.6 927.64 105.85 927 106.34C926.36 106.83 926.04 107.41 926.04 108.07C926.04 108.49 926.17 108.87 926.44 109.21C926.7 109.56 927.12 109.85 927.69 110.07C928.01 110.2 928.97 110.47 930.57 110.9C932.88 111.52 934.49 112.02 935.4 112.42C936.32 112.81 937.04 113.38 937.57 114.13C938.09 114.88 938.35 115.81 938.35 116.92C938.35 118.01 938.03 119.03 937.4 119.99C936.76 120.95 935.85 121.7 934.65 122.22C933.45 122.75 932.1 123.01 930.58 123.01C928.08 123.01 926.17 122.49 924.86 121.45C923.55 120.41 922.71 118.87 922.35 116.83ZM958.85 115.55L962.04 116C961.7 118.2 960.8 119.91 959.35 121.15C957.91 122.39 956.14 123.01 954.04 123.01C951.41 123.01 949.3 122.15 947.7 120.43C946.1 118.71 945.3 116.24 945.3 113.03C945.3 110.95 945.64 109.14 946.33 107.58C947.02 106.02 948.07 104.85 949.47 104.07C950.89 103.3 952.41 102.91 954.07 102.91C956.16 102.91 957.87 103.44 959.2 104.5C960.53 105.57 961.38 107.08 961.75 109.04L958.56 109.5C958.26 108.2 957.73 107.23 956.96 106.58C956.2 105.93 955.27 105.6 954.19 105.6C952.55 105.6 951.21 106.19 950.19 107.36C949.17 108.54 948.65 110.4 948.65 112.94C948.65 115.52 949.15 117.39 950.14 118.56C951.13 119.73 952.42 120.31 954.02 120.31C955.3 120.31 956.36 119.93 957.23 119.15C958.08 118.37 958.62 117.17 958.85 115.55ZM968.87 122.59L968.87 95.98L972.14 95.98L972.14 105.56C973.66 103.79 975.57 102.91 977.88 102.91C979.3 102.91 980.53 103.19 981.57 103.75C982.62 104.31 983.37 105.09 983.82 106.08C984.27 107.07 984.49 108.51 984.49 110.39L984.49 122.59L981.22 122.59L981.22 110.4C981.22 108.77 980.87 107.58 980.17 106.84C979.47 106.09 978.48 105.72 977.19 105.72C976.24 105.72 975.33 105.97 974.49 106.47C973.64 106.98 973.04 107.66 972.68 108.51C972.32 109.37 972.14 110.55 972.14 112.07L972.14 122.59L968.87 122.59ZM1006.76 116.34L1010.13 116.79C1009.59 118.76 1008.61 120.29 1007.17 121.38C1005.73 122.46 1003.9 123.01 1001.66 123.01C998.85 123.01 996.62 122.14 994.97 120.41C993.32 118.68 992.49 116.25 992.49 113.12C992.49 109.88 993.33 107.37 994.99 105.59C996.66 103.8 998.82 102.91 1001.48 102.91C1004.06 102.91 1006.15 103.78 1007.79 105.53C1009.42 107.29 1010.23 109.76 1010.23 112.94C1010.23 113.13 1010.22 113.42 1010.22 113.81L995.85 113.81C995.97 115.91 996.57 117.52 997.65 118.64C998.72 119.76 1000.07 120.31 1001.68 120.31C1002.88 120.31 1003.9 120 1004.74 119.36C1005.59 118.73 1006.27 117.72 1006.76 116.34ZM996.01 111.11L1006.79 111.11C1006.64 109.5 1006.24 108.28 1005.56 107.48C1004.52 106.23 1003.16 105.6 1001.51 105.6C1000 105.6 998.74 106.1 997.71 107.1C996.7 108.1 996.13 109.44 996.01 111.11ZM1018.28 122.59L1018.28 103.32L1021.22 103.32L1021.22 106.06C1022.63 103.96 1024.67 102.91 1027.33 102.91C1028.49 102.91 1029.55 103.11 1030.53 103.53C1031.5 103.95 1032.23 104.5 1032.71 105.17C1033.19 105.85 1033.53 106.65 1033.72 107.58C1033.84 108.19 1033.9 109.24 1033.9 110.75L1033.9 122.59L1030.63 122.59L1030.63 110.87C1030.63 109.54 1030.5 108.55 1030.25 107.89C1029.99 107.23 1029.55 106.71 1028.9 106.31C1028.26 105.92 1027.5 105.72 1026.64 105.72C1025.25 105.72 1024.06 106.17 1023.06 107.05C1022.05 107.93 1021.55 109.61 1021.55 112.07L1021.55 122.59L1018.28 122.59Z" />
			<text id="REGIONALGRUPPE ZÜRICH" style="transform: matrix(1,0,0,1,583.293,286.605)" >
				<tspan x="0" y="0" class="txt1">REGIONALGRUPPE ZÜRICH</tspan>
			</text>
		</g>
	</g>
</svg>